<?xml version="1.0" encoding="UTF-8" standalone="no"?>
<!-- Created with Inkscape (http://www.inkscape.org/) -->

<svg
   width="130.29216mm"
   height="87.037277mm"
   viewBox="0 0 130.29216 87.037277"
   version="1.1"
   id="svg1"
   inkscape:version="1.3 (0e150ed6c4, 2023-07-21)"
   sodipodi:docname="index.svg"
   xmlns:inkscape="http://www.inkscape.org/namespaces/inkscape"
   xmlns:sodipodi="http://sodipodi.sourceforge.net/DTD/sodipodi-0.dtd"
   xmlns="http://www.w3.org/2000/svg"
   xmlns:svg="http://www.w3.org/2000/svg">
  <sodipodi:namedview
     id="namedview1"
     pagecolor="#ffffff"
     bordercolor="#000000"
     borderopacity="0.25"
     inkscape:showpageshadow="2"
     inkscape:pageopacity="0.0"
     inkscape:pagecheckerboard="0"
     inkscape:deskcolor="#d1d1d1"
     inkscape:document-units="mm"
     inkscape:zoom="1.5608738"
     inkscape:cx="333.78739"
     inkscape:cy="201.81004"
     inkscape:window-width="1920"
     inkscape:window-height="974"
     inkscape:window-x="-11"
     inkscape:window-y="-11"
     inkscape:window-maximized="1"
     inkscape:current-layer="layer1"
     showguides="false" />
  <defs
     id="defs1">
    <g
       id="id-95600933-0f41-42a0-8a7c-1ccc8c640682-5">
      <g
         id="id-5136a55e-533d-404d-9fec-567947912f7e-3" />
      <g
         id="id-ee2d3d9c-b91e-4f58-be35-708991668641-5">
        <path
           d="M 1.09375,-3.421875 V -0.75 c 0,0.4375 -0.109375,0.4375 -0.78125,0.4375 V 0 c 0.359375,-0.015625 0.859375,-0.03125 1.140625,-0.03125 0.25,0 0.765625,0.015625 1.109375,0.03125 v -0.3125 c -0.671875,0 -0.78125,0 -0.78125,-0.4375 V -2.59375 C 1.78125,-3.625 2.5,-4.1875 3.125,-4.1875 c 0.640625,0 0.75,0.53125 0.75,1.109375 V -0.75 c 0,0.4375 -0.109375,0.4375 -0.78125,0.4375 V 0 c 0.34375,-0.015625 0.859375,-0.03125 1.125,-0.03125 0.25,0 0.78125,0.015625 1.109375,0.03125 v -0.3125 c -0.515625,0 -0.765625,0 -0.765625,-0.296875 v -1.90625 c 0,-0.859375 0,-1.15625 -0.3125,-1.515625 -0.140625,-0.171875 -0.46875,-0.375 -1.046875,-0.375 C 2.46875,-4.40625 2,-3.984375 1.71875,-3.359375 V -4.40625 L 0.3125,-4.296875 v 0.3125 c 0.703125,0 0.78125,0.0625 0.78125,0.5625 z m 0,0"
           id="id-520dcc38-20e1-4404-89a7-304131d4e290-6" />
      </g>
      <g
         id="id-e6a8350c-1b5e-4ce4-9e25-76628bf60ce6-1">
        <path
           d="M 1.671875,-3.3125 V -4.40625 L 0.28125,-4.296875 v 0.3125 c 0.703125,0 0.78125,0.0625 0.78125,0.5625 V -0.75 c 0,0.4375 -0.109375,0.4375 -0.78125,0.4375 V 0 c 0.390625,-0.015625 0.859375,-0.03125 1.140625,-0.03125 0.390625,0 0.859375,0 1.265625,0.03125 V -0.3125 H 2.46875 c -0.734375,0 -0.75,-0.109375 -0.75,-0.46875 V -2.3125 c 0,-0.984375 0.421875,-1.875 1.171875,-1.875 0.0625,0 0.09375,0 0.109375,0.015625 -0.03125,0 -0.234375,0.125 -0.234375,0.390625 0,0.265625 0.21875,0.421875 0.4375,0.421875 0.171875,0 0.421875,-0.125 0.421875,-0.4375 0,-0.3125 -0.3125,-0.609375 -0.734375,-0.609375 -0.734375,0 -1.09375,0.671875 -1.21875,1.09375 z m 0,0"
           id="id-e7d74ccd-b360-459a-abcf-9cd08b6531f4-0" />
      </g>
      <g
         id="id-412422f7-ed81-4dfc-9b2f-93d903dbda82-5">
        <path
           d="m 3.296875,2.390625 c 0,-0.03125 0,-0.046875 -0.171875,-0.21875 C 1.890625,0.921875 1.5625,-0.96875 1.5625,-2.5 c 0,-1.734375 0.375,-3.46875 1.609375,-4.703125 0.125,-0.125 0.125,-0.140625 0.125,-0.171875 0,-0.078125 -0.03125,-0.109375 -0.09375,-0.109375 -0.109375,0 -1,0.6875 -1.59375,1.953125 -0.5,1.09375 -0.625,2.203125 -0.625,3.03125 0,0.78125 0.109375,1.984375 0.65625,3.125 C 2.25,1.84375 3.09375,2.5 3.203125,2.5 c 0.0625,0 0.09375,-0.03125 0.09375,-0.109375 z m 0,0"
           id="id-cd6ff6f5-0e68-4058-bdcf-74a214fbdc2d-3" />
      </g>
      <g
         id="id-be0ffbfb-16a7-491d-a72d-04d3202f34f7-2">
        <path
           d="m 2.9375,-6.375 c 0,-0.25 0,-0.265625 -0.234375,-0.265625 C 2.078125,-6 1.203125,-6 0.890625,-6 v 0.3125 c 0.203125,0 0.78125,0 1.296875,-0.265625 v 5.171875 c 0,0.359375 -0.03125,0.46875 -0.921875,0.46875 h -0.3125 V 0 c 0.34375,-0.03125 1.203125,-0.03125 1.609375,-0.03125 0.390625,0 1.265625,0 1.609375,0.03125 v -0.3125 h -0.3125 c -0.90625,0 -0.921875,-0.109375 -0.921875,-0.46875 z m 0,0"
           id="id-acd1ddb4-2685-4f7e-95ba-37597e1cfb31-5" />
      </g>
      <g
         id="id-734aa405-2c2d-42c7-a10e-bf35a11db359-9">
        <path
           d="m 2.875,-2.5 c 0,-0.765625 -0.109375,-1.96875 -0.65625,-3.109375 -0.59375,-1.21875 -1.453125,-1.875 -1.546875,-1.875 -0.0625,0 -0.109375,0.046875 -0.109375,0.109375 0,0.03125 0,0.046875 0.1875,0.234375 0.984375,0.984375 1.546875,2.5625 1.546875,4.640625 0,1.71875 -0.359375,3.46875 -1.59375,4.71875 C 0.5625,2.34375 0.5625,2.359375 0.5625,2.390625 0.5625,2.453125 0.609375,2.5 0.671875,2.5 0.765625,2.5 1.671875,1.8125 2.25,0.546875 2.765625,-0.546875 2.875,-1.65625 2.875,-2.5 Z m 0,0"
           id="id-2779f436-13d7-45ba-a5bc-f9dbfc166b99-4" />
      </g>
    </g>
    <g
       id="id-95600933-0f41-42a0-8a7c-1ccc8c640682-6">
      <g
         id="id-5136a55e-533d-404d-9fec-567947912f7e-7" />
      <g
         id="id-ee2d3d9c-b91e-4f58-be35-708991668641-7">
        <path
           d="M 1.09375,-3.421875 V -0.75 c 0,0.4375 -0.109375,0.4375 -0.78125,0.4375 V 0 c 0.359375,-0.015625 0.859375,-0.03125 1.140625,-0.03125 0.25,0 0.765625,0.015625 1.109375,0.03125 v -0.3125 c -0.671875,0 -0.78125,0 -0.78125,-0.4375 V -2.59375 C 1.78125,-3.625 2.5,-4.1875 3.125,-4.1875 c 0.640625,0 0.75,0.53125 0.75,1.109375 V -0.75 c 0,0.4375 -0.109375,0.4375 -0.78125,0.4375 V 0 c 0.34375,-0.015625 0.859375,-0.03125 1.125,-0.03125 0.25,0 0.78125,0.015625 1.109375,0.03125 v -0.3125 c -0.515625,0 -0.765625,0 -0.765625,-0.296875 v -1.90625 c 0,-0.859375 0,-1.15625 -0.3125,-1.515625 -0.140625,-0.171875 -0.46875,-0.375 -1.046875,-0.375 C 2.46875,-4.40625 2,-3.984375 1.71875,-3.359375 V -4.40625 L 0.3125,-4.296875 v 0.3125 c 0.703125,0 0.78125,0.0625 0.78125,0.5625 z m 0,0"
           id="id-520dcc38-20e1-4404-89a7-304131d4e290-2" />
      </g>
      <g
         id="id-e6a8350c-1b5e-4ce4-9e25-76628bf60ce6-7">
        <path
           d="M 1.671875,-3.3125 V -4.40625 L 0.28125,-4.296875 v 0.3125 c 0.703125,0 0.78125,0.0625 0.78125,0.5625 V -0.75 c 0,0.4375 -0.109375,0.4375 -0.78125,0.4375 V 0 c 0.390625,-0.015625 0.859375,-0.03125 1.140625,-0.03125 0.390625,0 0.859375,0 1.265625,0.03125 V -0.3125 H 2.46875 c -0.734375,0 -0.75,-0.109375 -0.75,-0.46875 V -2.3125 c 0,-0.984375 0.421875,-1.875 1.171875,-1.875 0.0625,0 0.09375,0 0.109375,0.015625 -0.03125,0 -0.234375,0.125 -0.234375,0.390625 0,0.265625 0.21875,0.421875 0.4375,0.421875 0.171875,0 0.421875,-0.125 0.421875,-0.4375 0,-0.3125 -0.3125,-0.609375 -0.734375,-0.609375 -0.734375,0 -1.09375,0.671875 -1.21875,1.09375 z m 0,0"
           id="id-e7d74ccd-b360-459a-abcf-9cd08b6531f4-6" />
      </g>
      <g
         id="id-412422f7-ed81-4dfc-9b2f-93d903dbda82-9">
        <path
           d="m 3.296875,2.390625 c 0,-0.03125 0,-0.046875 -0.171875,-0.21875 C 1.890625,0.921875 1.5625,-0.96875 1.5625,-2.5 c 0,-1.734375 0.375,-3.46875 1.609375,-4.703125 0.125,-0.125 0.125,-0.140625 0.125,-0.171875 0,-0.078125 -0.03125,-0.109375 -0.09375,-0.109375 -0.109375,0 -1,0.6875 -1.59375,1.953125 -0.5,1.09375 -0.625,2.203125 -0.625,3.03125 0,0.78125 0.109375,1.984375 0.65625,3.125 C 2.25,1.84375 3.09375,2.5 3.203125,2.5 c 0.0625,0 0.09375,-0.03125 0.09375,-0.109375 z m 0,0"
           id="id-cd6ff6f5-0e68-4058-bdcf-74a214fbdc2d-4" />
      </g>
      <g
         id="id-be0ffbfb-16a7-491d-a72d-04d3202f34f7-7">
        <path
           d="m 2.9375,-6.375 c 0,-0.25 0,-0.265625 -0.234375,-0.265625 C 2.078125,-6 1.203125,-6 0.890625,-6 v 0.3125 c 0.203125,0 0.78125,0 1.296875,-0.265625 v 5.171875 c 0,0.359375 -0.03125,0.46875 -0.921875,0.46875 h -0.3125 V 0 c 0.34375,-0.03125 1.203125,-0.03125 1.609375,-0.03125 0.390625,0 1.265625,0 1.609375,0.03125 v -0.3125 h -0.3125 c -0.90625,0 -0.921875,-0.109375 -0.921875,-0.46875 z m 0,0"
           id="id-acd1ddb4-2685-4f7e-95ba-37597e1cfb31-53" />
      </g>
      <g
         id="id-734aa405-2c2d-42c7-a10e-bf35a11db359-4">
        <path
           d="m 2.875,-2.5 c 0,-0.765625 -0.109375,-1.96875 -0.65625,-3.109375 -0.59375,-1.21875 -1.453125,-1.875 -1.546875,-1.875 -0.0625,0 -0.109375,0.046875 -0.109375,0.109375 0,0.03125 0,0.046875 0.1875,0.234375 0.984375,0.984375 1.546875,2.5625 1.546875,4.640625 0,1.71875 -0.359375,3.46875 -1.59375,4.71875 C 0.5625,2.34375 0.5625,2.359375 0.5625,2.390625 0.5625,2.453125 0.609375,2.5 0.671875,2.5 0.765625,2.5 1.671875,1.8125 2.25,0.546875 2.765625,-0.546875 2.875,-1.65625 2.875,-2.5 Z m 0,0"
           id="id-2779f436-13d7-45ba-a5bc-f9dbfc166b99-3" />
      </g>
    </g>
    <g
       id="id-c1f3083a-4e3f-4103-b300-e06b085e8e21-8">
      <g
         id="id-870c9412-df3d-4ffe-a063-b721efaddc8a-2" />
      <g
         id="id-42315214-28bf-46a5-b1f9-fb9054851310-3">
        <path
           d="M 1.09375,-3.421875 V -0.75 c 0,0.4375 -0.109375,0.4375 -0.78125,0.4375 V 0 c 0.359375,-0.015625 0.859375,-0.03125 1.140625,-0.03125 0.25,0 0.765625,0.015625 1.109375,0.03125 v -0.3125 c -0.671875,0 -0.78125,0 -0.78125,-0.4375 V -2.59375 C 1.78125,-3.625 2.5,-4.1875 3.125,-4.1875 c 0.640625,0 0.75,0.53125 0.75,1.109375 V -0.75 c 0,0.4375 -0.109375,0.4375 -0.78125,0.4375 V 0 c 0.34375,-0.015625 0.859375,-0.03125 1.125,-0.03125 0.25,0 0.78125,0.015625 1.109375,0.03125 v -0.3125 c -0.515625,0 -0.765625,0 -0.765625,-0.296875 v -1.90625 c 0,-0.859375 0,-1.15625 -0.3125,-1.515625 -0.140625,-0.171875 -0.46875,-0.375 -1.046875,-0.375 C 2.46875,-4.40625 2,-3.984375 1.71875,-3.359375 V -4.40625 L 0.3125,-4.296875 v 0.3125 c 0.703125,0 0.78125,0.0625 0.78125,0.5625 z m 0,0"
           id="id-e1d6c928-9246-4a59-aef5-61e466798d18-2" />
      </g>
      <g
         id="id-b7a5c050-9ee1-4096-979f-1426b4c643ab-8">
        <path
           d="M 1.671875,-3.3125 V -4.40625 L 0.28125,-4.296875 v 0.3125 c 0.703125,0 0.78125,0.0625 0.78125,0.5625 V -0.75 c 0,0.4375 -0.109375,0.4375 -0.78125,0.4375 V 0 c 0.390625,-0.015625 0.859375,-0.03125 1.140625,-0.03125 0.390625,0 0.859375,0 1.265625,0.03125 V -0.3125 H 2.46875 c -0.734375,0 -0.75,-0.109375 -0.75,-0.46875 V -2.3125 c 0,-0.984375 0.421875,-1.875 1.171875,-1.875 0.0625,0 0.09375,0 0.109375,0.015625 -0.03125,0 -0.234375,0.125 -0.234375,0.390625 0,0.265625 0.21875,0.421875 0.4375,0.421875 0.171875,0 0.421875,-0.125 0.421875,-0.4375 0,-0.3125 -0.3125,-0.609375 -0.734375,-0.609375 -0.734375,0 -1.09375,0.671875 -1.21875,1.09375 z m 0,0"
           id="id-cc8357cf-daff-4ed3-9940-1b94e90963e0-1" />
      </g>
      <g
         id="id-02bea6a4-3411-44ec-9f4f-02460c0ea182-9">
        <path
           d="m 3.296875,2.390625 c 0,-0.03125 0,-0.046875 -0.171875,-0.21875 C 1.890625,0.921875 1.5625,-0.96875 1.5625,-2.5 c 0,-1.734375 0.375,-3.46875 1.609375,-4.703125 0.125,-0.125 0.125,-0.140625 0.125,-0.171875 0,-0.078125 -0.03125,-0.109375 -0.09375,-0.109375 -0.109375,0 -1,0.6875 -1.59375,1.953125 -0.5,1.09375 -0.625,2.203125 -0.625,3.03125 0,0.78125 0.109375,1.984375 0.65625,3.125 C 2.25,1.84375 3.09375,2.5 3.203125,2.5 c 0.0625,0 0.09375,-0.03125 0.09375,-0.109375 z m 0,0"
           id="id-04756357-5010-41e8-a04c-ecb266ddb19a-8" />
      </g>
      <g
         id="id-eb1a7cea-dd3b-4113-be49-b29e5e86f8c0-8">
        <path
           d="m 1.265625,-0.765625 1.0625,-1.03125 c 1.546875,-1.375 2.140625,-1.90625 2.140625,-2.90625 0,-1.140625 -0.890625,-1.9375 -2.109375,-1.9375 -1.125,0 -1.859375,0.921875 -1.859375,1.8125 0,0.546875 0.5,0.546875 0.53125,0.546875 0.171875,0 0.515625,-0.109375 0.515625,-0.53125 0,-0.25 -0.1875,-0.515625 -0.53125,-0.515625 -0.078125,0 -0.09375,0 -0.125,0.015625 0.21875,-0.65625 0.765625,-1.015625 1.34375,-1.015625 0.90625,0 1.328125,0.8125 1.328125,1.625 C 3.5625,-3.90625 3.078125,-3.125 2.515625,-2.5 l -1.90625,2.125 C 0.5,-0.265625 0.5,-0.234375 0.5,0 H 4.203125 L 4.46875,-1.734375 H 4.234375 C 4.171875,-1.4375 4.109375,-1 4,-0.84375 3.9375,-0.765625 3.28125,-0.765625 3.0625,-0.765625 Z m 0,0"
           id="id-1b12e5d6-786c-4d2d-9dde-03c1fbb16b2e-8" />
      </g>
      <g
         id="id-e9695c89-aca9-4307-9be4-1bbb273c7765-2">
        <path
           d="m 2.875,-2.5 c 0,-0.765625 -0.109375,-1.96875 -0.65625,-3.109375 -0.59375,-1.21875 -1.453125,-1.875 -1.546875,-1.875 -0.0625,0 -0.109375,0.046875 -0.109375,0.109375 0,0.03125 0,0.046875 0.1875,0.234375 0.984375,0.984375 1.546875,2.5625 1.546875,4.640625 0,1.71875 -0.359375,3.46875 -1.59375,4.71875 C 0.5625,2.34375 0.5625,2.359375 0.5625,2.390625 0.5625,2.453125 0.609375,2.5 0.671875,2.5 0.765625,2.5 1.671875,1.8125 2.25,0.546875 2.765625,-0.546875 2.875,-1.65625 2.875,-2.5 Z m 0,0"
           id="id-4057c5db-d73e-42d5-ae1c-3f00744b4890-3" />
      </g>
    </g>
    <g
       id="id-1a913d77-6df0-47fc-9b0f-ccafd587b978-2">
      <g
         id="id-6a3d7859-cdbf-4a1d-afc7-ec5566b0b96e-3" />
      <g
         id="id-9d7e05bf-0ef5-4f53-bcd7-8871d2b71790-6">
        <path
           d="m 3.296875,2.390625 c 0,-0.03125 0,-0.046875 -0.171875,-0.21875 C 1.890625,0.921875 1.5625,-0.96875 1.5625,-2.5 c 0,-1.734375 0.375,-3.46875 1.609375,-4.703125 0.125,-0.125 0.125,-0.140625 0.125,-0.171875 0,-0.078125 -0.03125,-0.109375 -0.09375,-0.109375 -0.109375,0 -1,0.6875 -1.59375,1.953125 -0.5,1.09375 -0.625,2.203125 -0.625,3.03125 0,0.78125 0.109375,1.984375 0.65625,3.125 C 2.25,1.84375 3.09375,2.5 3.203125,2.5 c 0.0625,0 0.09375,-0.03125 0.09375,-0.109375 z m 0,0"
           id="id-8f736ec3-f1e9-4ad7-a637-9baa8186166a-9" />
      </g>
      <g
         id="id-6f183eff-bc83-4345-80cc-be8116670a10-1">
        <path
           d="M 1.765625,-4.40625 0.375,-4.296875 v 0.3125 c 0.640625,0 0.734375,0.0625 0.734375,0.546875 V -0.75 c 0,0.4375 -0.109375,0.4375 -0.78125,0.4375 V 0 C 0.640625,-0.015625 1.1875,-0.03125 1.421875,-0.03125 1.78125,-0.03125 2.125,-0.015625 2.46875,0 v -0.3125 c -0.671875,0 -0.703125,-0.046875 -0.703125,-0.4375 z m 0.03125,-1.734375 c 0,-0.3125 -0.234375,-0.53125 -0.515625,-0.53125 -0.3125,0 -0.53125,0.265625 -0.53125,0.53125 0,0.265625 0.21875,0.53125 0.53125,0.53125 0.28125,0 0.515625,-0.21875 0.515625,-0.53125 z m 0,0"
           id="id-13785271-3c5d-4acd-8910-66933d316d09-1" />
      </g>
      <g
         id="id-59e2a55d-1f5f-471b-8f16-e05b0cac0eed-0">
        <path
           d="m 2.03125,-0.015625 c 0,-0.625 -0.25,-1.046875 -0.640625,-1.046875 -0.359375,0 -0.53125,0.28125 -0.53125,0.53125 0,0.265625 0.171875,0.53125 0.53125,0.53125 0.15625,0 0.28125,-0.0625 0.375,-0.140625 L 1.78125,-0.15625 c 0.015625,0 0.015625,0 0.015625,0.140625 0,0.640625 -0.265625,1.25 -0.703125,1.71875 -0.0625,0.0625 -0.078125,0.078125 -0.078125,0.109375 0,0.078125 0.046875,0.109375 0.09375,0.109375 0.125,0 0.921875,-0.78125 0.921875,-1.9375 z m 0,0"
           id="id-ce016aee-4257-4581-8318-ebbbd3352681-6" />
      </g>
      <g
         id="id-4babcdfc-a0e3-4a5c-8000-3cac497f5b37-0">
        <path
           d="m 2.09375,-4.40625 -1.515625,0.109375 v 0.3125 c 0.765625,0 0.859375,0.0625 0.859375,0.5625 v 3.9375 c 0,0.453125 -0.09375,1.3125 -0.734375,1.3125 -0.046875,0 -0.28125,0 -0.53125,-0.140625 C 0.3125,1.65625 0.515625,1.515625 0.515625,1.25 0.515625,0.984375 0.34375,0.78125 0.0625,0.78125 c -0.28125,0 -0.46875,0.203125 -0.46875,0.46875 0,0.515625 0.5625,0.796875 1.140625,0.796875 C 1.46875,2.046875 2.09375,1.40625 2.09375,0.5 Z m 0,-1.734375 c 0,-0.296875 -0.234375,-0.53125 -0.53125,-0.53125 -0.28125,0 -0.53125,0.234375 -0.53125,0.53125 0,0.28125 0.25,0.53125 0.53125,0.53125 0.296875,0 0.53125,-0.25 0.53125,-0.53125 z m 0,0"
           id="id-58fdf9c7-5a7a-418c-be94-72639e4691ec-5" />
      </g>
      <g
         id="id-84e1b059-5070-406c-854b-e4c5aadbfb76-4">
        <path
           d="m 2.875,-2.5 c 0,-0.765625 -0.109375,-1.96875 -0.65625,-3.109375 -0.59375,-1.21875 -1.453125,-1.875 -1.546875,-1.875 -0.0625,0 -0.109375,0.046875 -0.109375,0.109375 0,0.03125 0,0.046875 0.1875,0.234375 0.984375,0.984375 1.546875,2.5625 1.546875,4.640625 0,1.71875 -0.359375,3.46875 -1.59375,4.71875 C 0.5625,2.34375 0.5625,2.359375 0.5625,2.390625 0.5625,2.453125 0.609375,2.5 0.671875,2.5 0.765625,2.5 1.671875,1.8125 2.25,0.546875 2.765625,-0.546875 2.875,-1.65625 2.875,-2.5 Z m 0,0"
           id="id-b6df0e16-64d6-4c55-b738-e51e67cf8bc5-1" />
      </g>
    </g>
    <g
       id="id-80568f21-ba19-4cbe-8504-4920e9a8f16a-1">
      <g
         id="id-a15d4b4b-07f9-4782-be70-5106ebb6b446-2" />
      <g
         id="id-75125dc0-31be-4b94-a57a-f90c2f160005-4">
        <path
           d="M 2.25,-6.03125 C 2.25,-6.390625 2.265625,-6.5 3.0625,-6.5 h 0.25 v -0.3125 c -0.34375,0.03125 -1.125,0.03125 -1.515625,0.03125 -0.375,0 -1.171875,0 -1.515625,-0.03125 V -6.5 h 0.25 c 0.796875,0 0.828125,0.109375 0.828125,0.46875 v 5.25 c 0,0.359375 -0.03125,0.46875 -0.828125,0.46875 h -0.25 V 0 c 0.34375,-0.03125 1.140625,-0.03125 1.515625,-0.03125 0.390625,0 1.171875,0 1.515625,0.03125 v -0.3125 h -0.25 C 2.265625,-0.3125 2.25,-0.421875 2.25,-0.78125 Z m 0,0"
           id="id-ce15dc46-5f30-491c-a384-ee93181c23e2-4" />
      </g>
      <g
         id="id-44e67467-e4de-4752-9299-a07a5cbab560-9">
        <path
           d="m 3.3125,-0.75 c 0.046875,0.390625 0.3125,0.8125 0.78125,0.8125 0.21875,0 0.828125,-0.140625 0.828125,-0.953125 v -0.5625 h -0.25 v 0.5625 c 0,0.578125 -0.25,0.640625 -0.359375,0.640625 -0.328125,0 -0.375,-0.453125 -0.375,-0.5 v -1.984375 c 0,-0.421875 0,-0.8125 -0.359375,-1.1875 C 3.1875,-4.3125 2.6875,-4.46875 2.21875,-4.46875 c -0.828125,0 -1.515625,0.46875 -1.515625,1.125 0,0.296875 0.203125,0.46875 0.46875,0.46875 0.28125,0 0.453125,-0.203125 0.453125,-0.453125 0,-0.125 -0.046875,-0.453125 -0.515625,-0.453125 C 1.390625,-4.140625 1.875,-4.25 2.1875,-4.25 c 0.5,0 1.0625,0.390625 1.0625,1.28125 v 0.359375 c -0.515625,0.03125 -1.203125,0.0625 -1.828125,0.359375 -0.75,0.34375 -1,0.859375 -1,1.296875 0,0.8125 0.96875,1.0625 1.59375,1.0625 0.65625,0 1.109375,-0.40625 1.296875,-0.859375 z M 3.25,-2.390625 v 1 c 0,0.9375 -0.71875,1.28125 -1.171875,1.28125 -0.484375,0 -0.890625,-0.34375 -0.890625,-0.84375 0,-0.546875 0.421875,-1.375 2.0625,-1.4375 z m 0,0"
           id="id-9e11ddba-2adf-4073-8072-0ef5a60d6d79-0" />
      </g>
      <g
         id="id-e2b4b7d4-db8a-4cfd-84d2-ac94e21d5999-1">
        <path
           d="m 3.296875,2.390625 c 0,-0.03125 0,-0.046875 -0.171875,-0.21875 C 1.890625,0.921875 1.5625,-0.96875 1.5625,-2.5 c 0,-1.734375 0.375,-3.46875 1.609375,-4.703125 0.125,-0.125 0.125,-0.140625 0.125,-0.171875 0,-0.078125 -0.03125,-0.109375 -0.09375,-0.109375 -0.109375,0 -1,0.6875 -1.59375,1.953125 -0.5,1.09375 -0.625,2.203125 -0.625,3.03125 0,0.78125 0.109375,1.984375 0.65625,3.125 C 2.25,1.84375 3.09375,2.5 3.203125,2.5 c 0.0625,0 0.09375,-0.03125 0.09375,-0.109375 z m 0,0"
           id="id-5de661c2-9776-4bf7-ab70-5b46cc75f8a6-3" />
      </g>
      <g
         id="id-a3079349-bd84-4c71-a219-75d99e883e94-4">
        <path
           d="m 2.9375,-6.375 c 0,-0.25 0,-0.265625 -0.234375,-0.265625 C 2.078125,-6 1.203125,-6 0.890625,-6 v 0.3125 c 0.203125,0 0.78125,0 1.296875,-0.265625 v 5.171875 c 0,0.359375 -0.03125,0.46875 -0.921875,0.46875 h -0.3125 V 0 c 0.34375,-0.03125 1.203125,-0.03125 1.609375,-0.03125 0.390625,0 1.265625,0 1.609375,0.03125 v -0.3125 h -0.3125 c -0.90625,0 -0.921875,-0.109375 -0.921875,-0.46875 z m 0,0"
           id="id-986d1276-87b0-4f1f-9413-0df997a1fe19-7" />
      </g>
      <g
         id="id-0fc9a2a9-270c-4823-b356-892d976d369c-1">
        <path
           d="m 2.875,-2.5 c 0,-0.765625 -0.109375,-1.96875 -0.65625,-3.109375 -0.59375,-1.21875 -1.453125,-1.875 -1.546875,-1.875 -0.0625,0 -0.109375,0.046875 -0.109375,0.109375 0,0.03125 0,0.046875 0.1875,0.234375 0.984375,0.984375 1.546875,2.5625 1.546875,4.640625 0,1.71875 -0.359375,3.46875 -1.59375,4.71875 C 0.5625,2.34375 0.5625,2.359375 0.5625,2.390625 0.5625,2.453125 0.609375,2.5 0.671875,2.5 0.765625,2.5 1.671875,1.8125 2.25,0.546875 2.765625,-0.546875 2.875,-1.65625 2.875,-2.5 Z m 0,0"
           id="id-4165dc22-3db6-4e03-80e7-4255a11429f0-6" />
      </g>
    </g>
    <g
       id="id-80568f21-ba19-4cbe-8504-4920e9a8f16a-2">
      <g
         id="id-a15d4b4b-07f9-4782-be70-5106ebb6b446-5" />
      <g
         id="id-75125dc0-31be-4b94-a57a-f90c2f160005-5">
        <path
           d="M 2.25,-6.03125 C 2.25,-6.390625 2.265625,-6.5 3.0625,-6.5 h 0.25 v -0.3125 c -0.34375,0.03125 -1.125,0.03125 -1.515625,0.03125 -0.375,0 -1.171875,0 -1.515625,-0.03125 V -6.5 h 0.25 c 0.796875,0 0.828125,0.109375 0.828125,0.46875 v 5.25 c 0,0.359375 -0.03125,0.46875 -0.828125,0.46875 h -0.25 V 0 c 0.34375,-0.03125 1.140625,-0.03125 1.515625,-0.03125 0.390625,0 1.171875,0 1.515625,0.03125 v -0.3125 h -0.25 C 2.265625,-0.3125 2.25,-0.421875 2.25,-0.78125 Z m 0,0"
           id="id-ce15dc46-5f30-491c-a384-ee93181c23e2-43" />
      </g>
      <g
         id="id-44e67467-e4de-4752-9299-a07a5cbab560-8">
        <path
           d="m 3.3125,-0.75 c 0.046875,0.390625 0.3125,0.8125 0.78125,0.8125 0.21875,0 0.828125,-0.140625 0.828125,-0.953125 v -0.5625 h -0.25 v 0.5625 c 0,0.578125 -0.25,0.640625 -0.359375,0.640625 -0.328125,0 -0.375,-0.453125 -0.375,-0.5 v -1.984375 c 0,-0.421875 0,-0.8125 -0.359375,-1.1875 C 3.1875,-4.3125 2.6875,-4.46875 2.21875,-4.46875 c -0.828125,0 -1.515625,0.46875 -1.515625,1.125 0,0.296875 0.203125,0.46875 0.46875,0.46875 0.28125,0 0.453125,-0.203125 0.453125,-0.453125 0,-0.125 -0.046875,-0.453125 -0.515625,-0.453125 C 1.390625,-4.140625 1.875,-4.25 2.1875,-4.25 c 0.5,0 1.0625,0.390625 1.0625,1.28125 v 0.359375 c -0.515625,0.03125 -1.203125,0.0625 -1.828125,0.359375 -0.75,0.34375 -1,0.859375 -1,1.296875 0,0.8125 0.96875,1.0625 1.59375,1.0625 0.65625,0 1.109375,-0.40625 1.296875,-0.859375 z M 3.25,-2.390625 v 1 c 0,0.9375 -0.71875,1.28125 -1.171875,1.28125 -0.484375,0 -0.890625,-0.34375 -0.890625,-0.84375 0,-0.546875 0.421875,-1.375 2.0625,-1.4375 z m 0,0"
           id="id-9e11ddba-2adf-4073-8072-0ef5a60d6d79-8" />
      </g>
      <g
         id="id-e2b4b7d4-db8a-4cfd-84d2-ac94e21d5999-4">
        <path
           d="m 3.296875,2.390625 c 0,-0.03125 0,-0.046875 -0.171875,-0.21875 C 1.890625,0.921875 1.5625,-0.96875 1.5625,-2.5 c 0,-1.734375 0.375,-3.46875 1.609375,-4.703125 0.125,-0.125 0.125,-0.140625 0.125,-0.171875 0,-0.078125 -0.03125,-0.109375 -0.09375,-0.109375 -0.109375,0 -1,0.6875 -1.59375,1.953125 -0.5,1.09375 -0.625,2.203125 -0.625,3.03125 0,0.78125 0.109375,1.984375 0.65625,3.125 C 2.25,1.84375 3.09375,2.5 3.203125,2.5 c 0.0625,0 0.09375,-0.03125 0.09375,-0.109375 z m 0,0"
           id="id-5de661c2-9776-4bf7-ab70-5b46cc75f8a6-9" />
      </g>
      <g
         id="id-a3079349-bd84-4c71-a219-75d99e883e94-6">
        <path
           d="m 2.9375,-6.375 c 0,-0.25 0,-0.265625 -0.234375,-0.265625 C 2.078125,-6 1.203125,-6 0.890625,-6 v 0.3125 c 0.203125,0 0.78125,0 1.296875,-0.265625 v 5.171875 c 0,0.359375 -0.03125,0.46875 -0.921875,0.46875 h -0.3125 V 0 c 0.34375,-0.03125 1.203125,-0.03125 1.609375,-0.03125 0.390625,0 1.265625,0 1.609375,0.03125 v -0.3125 h -0.3125 c -0.90625,0 -0.921875,-0.109375 -0.921875,-0.46875 z m 0,0"
           id="id-986d1276-87b0-4f1f-9413-0df997a1fe19-4" />
      </g>
      <g
         id="id-0fc9a2a9-270c-4823-b356-892d976d369c-5">
        <path
           d="m 2.875,-2.5 c 0,-0.765625 -0.109375,-1.96875 -0.65625,-3.109375 -0.59375,-1.21875 -1.453125,-1.875 -1.546875,-1.875 -0.0625,0 -0.109375,0.046875 -0.109375,0.109375 0,0.03125 0,0.046875 0.1875,0.234375 0.984375,0.984375 1.546875,2.5625 1.546875,4.640625 0,1.71875 -0.359375,3.46875 -1.59375,4.71875 C 0.5625,2.34375 0.5625,2.359375 0.5625,2.390625 0.5625,2.453125 0.609375,2.5 0.671875,2.5 0.765625,2.5 1.671875,1.8125 2.25,0.546875 2.765625,-0.546875 2.875,-1.65625 2.875,-2.5 Z m 0,0"
           id="id-4165dc22-3db6-4e03-80e7-4255a11429f0-5" />
      </g>
    </g>
    <g
       id="id-80568f21-ba19-4cbe-8504-4920e9a8f16a-21">
      <g
         id="id-a15d4b4b-07f9-4782-be70-5106ebb6b446-7" />
      <g
         id="id-75125dc0-31be-4b94-a57a-f90c2f160005-8">
        <path
           d="M 2.25,-6.03125 C 2.25,-6.390625 2.265625,-6.5 3.0625,-6.5 h 0.25 v -0.3125 c -0.34375,0.03125 -1.125,0.03125 -1.515625,0.03125 -0.375,0 -1.171875,0 -1.515625,-0.03125 V -6.5 h 0.25 c 0.796875,0 0.828125,0.109375 0.828125,0.46875 v 5.25 c 0,0.359375 -0.03125,0.46875 -0.828125,0.46875 h -0.25 V 0 c 0.34375,-0.03125 1.140625,-0.03125 1.515625,-0.03125 0.390625,0 1.171875,0 1.515625,0.03125 v -0.3125 h -0.25 C 2.265625,-0.3125 2.25,-0.421875 2.25,-0.78125 Z m 0,0"
           id="id-ce15dc46-5f30-491c-a384-ee93181c23e2-5" />
      </g>
      <g
         id="id-44e67467-e4de-4752-9299-a07a5cbab560-6">
        <path
           d="m 3.3125,-0.75 c 0.046875,0.390625 0.3125,0.8125 0.78125,0.8125 0.21875,0 0.828125,-0.140625 0.828125,-0.953125 v -0.5625 h -0.25 v 0.5625 c 0,0.578125 -0.25,0.640625 -0.359375,0.640625 -0.328125,0 -0.375,-0.453125 -0.375,-0.5 v -1.984375 c 0,-0.421875 0,-0.8125 -0.359375,-1.1875 C 3.1875,-4.3125 2.6875,-4.46875 2.21875,-4.46875 c -0.828125,0 -1.515625,0.46875 -1.515625,1.125 0,0.296875 0.203125,0.46875 0.46875,0.46875 0.28125,0 0.453125,-0.203125 0.453125,-0.453125 0,-0.125 -0.046875,-0.453125 -0.515625,-0.453125 C 1.390625,-4.140625 1.875,-4.25 2.1875,-4.25 c 0.5,0 1.0625,0.390625 1.0625,1.28125 v 0.359375 c -0.515625,0.03125 -1.203125,0.0625 -1.828125,0.359375 -0.75,0.34375 -1,0.859375 -1,1.296875 0,0.8125 0.96875,1.0625 1.59375,1.0625 0.65625,0 1.109375,-0.40625 1.296875,-0.859375 z M 3.25,-2.390625 v 1 c 0,0.9375 -0.71875,1.28125 -1.171875,1.28125 -0.484375,0 -0.890625,-0.34375 -0.890625,-0.84375 0,-0.546875 0.421875,-1.375 2.0625,-1.4375 z m 0,0"
           id="id-9e11ddba-2adf-4073-8072-0ef5a60d6d79-6" />
      </g>
      <g
         id="id-e2b4b7d4-db8a-4cfd-84d2-ac94e21d5999-0">
        <path
           d="m 3.296875,2.390625 c 0,-0.03125 0,-0.046875 -0.171875,-0.21875 C 1.890625,0.921875 1.5625,-0.96875 1.5625,-2.5 c 0,-1.734375 0.375,-3.46875 1.609375,-4.703125 0.125,-0.125 0.125,-0.140625 0.125,-0.171875 0,-0.078125 -0.03125,-0.109375 -0.09375,-0.109375 -0.109375,0 -1,0.6875 -1.59375,1.953125 -0.5,1.09375 -0.625,2.203125 -0.625,3.03125 0,0.78125 0.109375,1.984375 0.65625,3.125 C 2.25,1.84375 3.09375,2.5 3.203125,2.5 c 0.0625,0 0.09375,-0.03125 0.09375,-0.109375 z m 0,0"
           id="id-5de661c2-9776-4bf7-ab70-5b46cc75f8a6-6" />
      </g>
      <g
         id="id-a3079349-bd84-4c71-a219-75d99e883e94-1">
        <path
           d="m 2.9375,-6.375 c 0,-0.25 0,-0.265625 -0.234375,-0.265625 C 2.078125,-6 1.203125,-6 0.890625,-6 v 0.3125 c 0.203125,0 0.78125,0 1.296875,-0.265625 v 5.171875 c 0,0.359375 -0.03125,0.46875 -0.921875,0.46875 h -0.3125 V 0 c 0.34375,-0.03125 1.203125,-0.03125 1.609375,-0.03125 0.390625,0 1.265625,0 1.609375,0.03125 v -0.3125 h -0.3125 c -0.90625,0 -0.921875,-0.109375 -0.921875,-0.46875 z m 0,0"
           id="id-986d1276-87b0-4f1f-9413-0df997a1fe19-3" />
      </g>
      <g
         id="id-0fc9a2a9-270c-4823-b356-892d976d369c-59">
        <path
           d="m 2.875,-2.5 c 0,-0.765625 -0.109375,-1.96875 -0.65625,-3.109375 -0.59375,-1.21875 -1.453125,-1.875 -1.546875,-1.875 -0.0625,0 -0.109375,0.046875 -0.109375,0.109375 0,0.03125 0,0.046875 0.1875,0.234375 0.984375,0.984375 1.546875,2.5625 1.546875,4.640625 0,1.71875 -0.359375,3.46875 -1.59375,4.71875 C 0.5625,2.34375 0.5625,2.359375 0.5625,2.390625 0.5625,2.453125 0.609375,2.5 0.671875,2.5 0.765625,2.5 1.671875,1.8125 2.25,0.546875 2.765625,-0.546875 2.875,-1.65625 2.875,-2.5 Z m 0,0"
           id="id-4165dc22-3db6-4e03-80e7-4255a11429f0-66" />
      </g>
    </g>
    <g
       id="id-42ef7794-40c0-42a2-9041-489b992511d7-9">
      <g
         id="id-2cae227c-c6bc-4101-8e61-d9b871db3def-8" />
      <g
         id="id-b3a2dedc-19c4-4e98-a187-b4b7c3ce870b-8">
        <path
           d="M 3.015625,-1.46875 C 3.015625,-0.5625 2.515625,0 1.984375,0 1.921875,0 1.25,0 0.890625,-0.578125 1.40625,-0.578125 1.53125,-0.875 1.53125,-1.140625 1.53125,-1.5 1.25,-1.6875 0.96875,-1.6875 c -0.21875,0 -0.5625,0.125 -0.5625,0.578125 0,0.734375 0.703125,1.328125 1.59375,1.328125 1.015625,0 1.75,-0.703125 1.859375,-1.4375 C 3.875,-1.3125 3.875,-1.328125 3.875,-1.671875 V -6.09375 C 3.875,-6.5 4,-6.5 4.640625,-6.5 v -0.3125 c -0.4375,0.03125 -0.828125,0.03125 -1.296875,0.03125 -0.40625,0 -1.296875,0 -1.671875,-0.03125 V -6.5 H 2.03125 c 0.984375,0 0.984375,0.125 0.984375,0.484375 z m 0,0"
           id="id-d86e7f46-b506-43f1-bf4a-0000aaf4618e-5" />
      </g>
      <g
         id="id-e9fa1494-f664-4466-93e3-b78572e9a8fc-1">
        <path
           d="m 3.3125,-0.75 c 0.046875,0.390625 0.3125,0.8125 0.78125,0.8125 0.21875,0 0.828125,-0.140625 0.828125,-0.953125 v -0.5625 h -0.25 v 0.5625 c 0,0.578125 -0.25,0.640625 -0.359375,0.640625 -0.328125,0 -0.375,-0.453125 -0.375,-0.5 v -1.984375 c 0,-0.421875 0,-0.8125 -0.359375,-1.1875 C 3.1875,-4.3125 2.6875,-4.46875 2.21875,-4.46875 c -0.828125,0 -1.515625,0.46875 -1.515625,1.125 0,0.296875 0.203125,0.46875 0.46875,0.46875 0.28125,0 0.453125,-0.203125 0.453125,-0.453125 0,-0.125 -0.046875,-0.453125 -0.515625,-0.453125 C 1.390625,-4.140625 1.875,-4.25 2.1875,-4.25 c 0.5,0 1.0625,0.390625 1.0625,1.28125 v 0.359375 c -0.515625,0.03125 -1.203125,0.0625 -1.828125,0.359375 -0.75,0.34375 -1,0.859375 -1,1.296875 0,0.8125 0.96875,1.0625 1.59375,1.0625 0.65625,0 1.109375,-0.40625 1.296875,-0.859375 z M 3.25,-2.390625 v 1 c 0,0.9375 -0.71875,1.28125 -1.171875,1.28125 -0.484375,0 -0.890625,-0.34375 -0.890625,-0.84375 0,-0.546875 0.421875,-1.375 2.0625,-1.4375 z m 0,0"
           id="id-c8b84634-f709-42db-9b76-f65a7c5b73ad-5" />
      </g>
      <g
         id="id-e7fe456d-c367-4874-8147-c003605b72ab-3">
        <path
           d="m 3.296875,2.390625 c 0,-0.03125 0,-0.046875 -0.171875,-0.21875 C 1.890625,0.921875 1.5625,-0.96875 1.5625,-2.5 c 0,-1.734375 0.375,-3.46875 1.609375,-4.703125 0.125,-0.125 0.125,-0.140625 0.125,-0.171875 0,-0.078125 -0.03125,-0.109375 -0.09375,-0.109375 -0.109375,0 -1,0.6875 -1.59375,1.953125 -0.5,1.09375 -0.625,2.203125 -0.625,3.03125 0,0.78125 0.109375,1.984375 0.65625,3.125 C 2.25,1.84375 3.09375,2.5 3.203125,2.5 c 0.0625,0 0.09375,-0.03125 0.09375,-0.109375 z m 0,0"
           id="id-6b20aea2-e06c-46d5-b173-c2389aa8f7de-8" />
      </g>
      <g
         id="id-9573bf69-e733-487d-875f-48ba4338b9c2-9">
        <path
           d="m 2.9375,-6.375 c 0,-0.25 0,-0.265625 -0.234375,-0.265625 C 2.078125,-6 1.203125,-6 0.890625,-6 v 0.3125 c 0.203125,0 0.78125,0 1.296875,-0.265625 v 5.171875 c 0,0.359375 -0.03125,0.46875 -0.921875,0.46875 h -0.3125 V 0 c 0.34375,-0.03125 1.203125,-0.03125 1.609375,-0.03125 0.390625,0 1.265625,0 1.609375,0.03125 v -0.3125 h -0.3125 c -0.90625,0 -0.921875,-0.109375 -0.921875,-0.46875 z m 0,0"
           id="id-ff09f998-4d16-40b8-80c7-306a0874cd24-8" />
      </g>
      <g
         id="id-a9faba88-e33c-4493-abc7-260eedae4e3a-5">
        <path
           d="m 2.875,-2.5 c 0,-0.765625 -0.109375,-1.96875 -0.65625,-3.109375 -0.59375,-1.21875 -1.453125,-1.875 -1.546875,-1.875 -0.0625,0 -0.109375,0.046875 -0.109375,0.109375 0,0.03125 0,0.046875 0.1875,0.234375 0.984375,0.984375 1.546875,2.5625 1.546875,4.640625 0,1.71875 -0.359375,3.46875 -1.59375,4.71875 C 0.5625,2.34375 0.5625,2.359375 0.5625,2.390625 0.5625,2.453125 0.609375,2.5 0.671875,2.5 0.765625,2.5 1.671875,1.8125 2.25,0.546875 2.765625,-0.546875 2.875,-1.65625 2.875,-2.5 Z m 0,0"
           id="id-f5c25686-8ac7-4a22-87f1-89695ecd1e7a-1" />
      </g>
    </g>
    <g
       id="id-42ef7794-40c0-42a2-9041-489b992511d7-3">
      <g
         id="id-2cae227c-c6bc-4101-8e61-d9b871db3def-6" />
      <g
         id="id-b3a2dedc-19c4-4e98-a187-b4b7c3ce870b-4">
        <path
           d="M 3.015625,-1.46875 C 3.015625,-0.5625 2.515625,0 1.984375,0 1.921875,0 1.25,0 0.890625,-0.578125 1.40625,-0.578125 1.53125,-0.875 1.53125,-1.140625 1.53125,-1.5 1.25,-1.6875 0.96875,-1.6875 c -0.21875,0 -0.5625,0.125 -0.5625,0.578125 0,0.734375 0.703125,1.328125 1.59375,1.328125 1.015625,0 1.75,-0.703125 1.859375,-1.4375 C 3.875,-1.3125 3.875,-1.328125 3.875,-1.671875 V -6.09375 C 3.875,-6.5 4,-6.5 4.640625,-6.5 v -0.3125 c -0.4375,0.03125 -0.828125,0.03125 -1.296875,0.03125 -0.40625,0 -1.296875,0 -1.671875,-0.03125 V -6.5 H 2.03125 c 0.984375,0 0.984375,0.125 0.984375,0.484375 z m 0,0"
           id="id-d86e7f46-b506-43f1-bf4a-0000aaf4618e-4" />
      </g>
      <g
         id="id-e9fa1494-f664-4466-93e3-b78572e9a8fc-2">
        <path
           d="m 3.3125,-0.75 c 0.046875,0.390625 0.3125,0.8125 0.78125,0.8125 0.21875,0 0.828125,-0.140625 0.828125,-0.953125 v -0.5625 h -0.25 v 0.5625 c 0,0.578125 -0.25,0.640625 -0.359375,0.640625 -0.328125,0 -0.375,-0.453125 -0.375,-0.5 v -1.984375 c 0,-0.421875 0,-0.8125 -0.359375,-1.1875 C 3.1875,-4.3125 2.6875,-4.46875 2.21875,-4.46875 c -0.828125,0 -1.515625,0.46875 -1.515625,1.125 0,0.296875 0.203125,0.46875 0.46875,0.46875 0.28125,0 0.453125,-0.203125 0.453125,-0.453125 0,-0.125 -0.046875,-0.453125 -0.515625,-0.453125 C 1.390625,-4.140625 1.875,-4.25 2.1875,-4.25 c 0.5,0 1.0625,0.390625 1.0625,1.28125 v 0.359375 c -0.515625,0.03125 -1.203125,0.0625 -1.828125,0.359375 -0.75,0.34375 -1,0.859375 -1,1.296875 0,0.8125 0.96875,1.0625 1.59375,1.0625 0.65625,0 1.109375,-0.40625 1.296875,-0.859375 z M 3.25,-2.390625 v 1 c 0,0.9375 -0.71875,1.28125 -1.171875,1.28125 -0.484375,0 -0.890625,-0.34375 -0.890625,-0.84375 0,-0.546875 0.421875,-1.375 2.0625,-1.4375 z m 0,0"
           id="id-c8b84634-f709-42db-9b76-f65a7c5b73ad-0" />
      </g>
      <g
         id="id-e7fe456d-c367-4874-8147-c003605b72ab-4">
        <path
           d="m 3.296875,2.390625 c 0,-0.03125 0,-0.046875 -0.171875,-0.21875 C 1.890625,0.921875 1.5625,-0.96875 1.5625,-2.5 c 0,-1.734375 0.375,-3.46875 1.609375,-4.703125 0.125,-0.125 0.125,-0.140625 0.125,-0.171875 0,-0.078125 -0.03125,-0.109375 -0.09375,-0.109375 -0.109375,0 -1,0.6875 -1.59375,1.953125 -0.5,1.09375 -0.625,2.203125 -0.625,3.03125 0,0.78125 0.109375,1.984375 0.65625,3.125 C 2.25,1.84375 3.09375,2.5 3.203125,2.5 c 0.0625,0 0.09375,-0.03125 0.09375,-0.109375 z m 0,0"
           id="id-6b20aea2-e06c-46d5-b173-c2389aa8f7de-7" />
      </g>
      <g
         id="id-9573bf69-e733-487d-875f-48ba4338b9c2-8">
        <path
           d="m 2.9375,-6.375 c 0,-0.25 0,-0.265625 -0.234375,-0.265625 C 2.078125,-6 1.203125,-6 0.890625,-6 v 0.3125 c 0.203125,0 0.78125,0 1.296875,-0.265625 v 5.171875 c 0,0.359375 -0.03125,0.46875 -0.921875,0.46875 h -0.3125 V 0 c 0.34375,-0.03125 1.203125,-0.03125 1.609375,-0.03125 0.390625,0 1.265625,0 1.609375,0.03125 v -0.3125 h -0.3125 c -0.90625,0 -0.921875,-0.109375 -0.921875,-0.46875 z m 0,0"
           id="id-ff09f998-4d16-40b8-80c7-306a0874cd24-6" />
      </g>
      <g
         id="id-a9faba88-e33c-4493-abc7-260eedae4e3a-51">
        <path
           d="m 2.875,-2.5 c 0,-0.765625 -0.109375,-1.96875 -0.65625,-3.109375 -0.59375,-1.21875 -1.453125,-1.875 -1.546875,-1.875 -0.0625,0 -0.109375,0.046875 -0.109375,0.109375 0,0.03125 0,0.046875 0.1875,0.234375 0.984375,0.984375 1.546875,2.5625 1.546875,4.640625 0,1.71875 -0.359375,3.46875 -1.59375,4.71875 C 0.5625,2.34375 0.5625,2.359375 0.5625,2.390625 0.5625,2.453125 0.609375,2.5 0.671875,2.5 0.765625,2.5 1.671875,1.8125 2.25,0.546875 2.765625,-0.546875 2.875,-1.65625 2.875,-2.5 Z m 0,0"
           id="id-f5c25686-8ac7-4a22-87f1-89695ecd1e7a-2" />
      </g>
    </g>
    <g
       id="id-d6d19f6f-75e9-4b50-a89b-c7c7b82a5e5d-3">
      <g
         id="id-fecdd87c-f906-4cf6-887f-bf3f532cccf9-3" />
      <g
         id="id-199aaf52-6d53-465c-9ec7-c849e4deb10e-4">
        <path
           d="M 3.015625,-1.46875 C 3.015625,-0.5625 2.515625,0 1.984375,0 1.921875,0 1.25,0 0.890625,-0.578125 1.40625,-0.578125 1.53125,-0.875 1.53125,-1.140625 1.53125,-1.5 1.25,-1.6875 0.96875,-1.6875 c -0.21875,0 -0.5625,0.125 -0.5625,0.578125 0,0.734375 0.703125,1.328125 1.59375,1.328125 1.015625,0 1.75,-0.703125 1.859375,-1.4375 C 3.875,-1.3125 3.875,-1.328125 3.875,-1.671875 V -6.09375 C 3.875,-6.5 4,-6.5 4.640625,-6.5 v -0.3125 c -0.4375,0.03125 -0.828125,0.03125 -1.296875,0.03125 -0.40625,0 -1.296875,0 -1.671875,-0.03125 V -6.5 H 2.03125 c 0.984375,0 0.984375,0.125 0.984375,0.484375 z m 0,0"
           id="id-4bbbb2f8-2940-4d2a-9cbc-16b1b8e1cbdc-6" />
      </g>
      <g
         id="id-3e5c79de-2f9e-49b2-b8b5-bd9027aa43eb-9">
        <path
           d="m 3.3125,-0.75 c 0.046875,0.390625 0.3125,0.8125 0.78125,0.8125 0.21875,0 0.828125,-0.140625 0.828125,-0.953125 v -0.5625 h -0.25 v 0.5625 c 0,0.578125 -0.25,0.640625 -0.359375,0.640625 -0.328125,0 -0.375,-0.453125 -0.375,-0.5 v -1.984375 c 0,-0.421875 0,-0.8125 -0.359375,-1.1875 C 3.1875,-4.3125 2.6875,-4.46875 2.21875,-4.46875 c -0.828125,0 -1.515625,0.46875 -1.515625,1.125 0,0.296875 0.203125,0.46875 0.46875,0.46875 0.28125,0 0.453125,-0.203125 0.453125,-0.453125 0,-0.125 -0.046875,-0.453125 -0.515625,-0.453125 C 1.390625,-4.140625 1.875,-4.25 2.1875,-4.25 c 0.5,0 1.0625,0.390625 1.0625,1.28125 v 0.359375 c -0.515625,0.03125 -1.203125,0.0625 -1.828125,0.359375 -0.75,0.34375 -1,0.859375 -1,1.296875 0,0.8125 0.96875,1.0625 1.59375,1.0625 0.65625,0 1.109375,-0.40625 1.296875,-0.859375 z M 3.25,-2.390625 v 1 c 0,0.9375 -0.71875,1.28125 -1.171875,1.28125 -0.484375,0 -0.890625,-0.34375 -0.890625,-0.84375 0,-0.546875 0.421875,-1.375 2.0625,-1.4375 z m 0,0"
           id="id-36334117-c33e-4bc5-bdf0-39bde797a3a8-2" />
      </g>
      <g
         id="id-fdfaba6c-0249-478c-8fa2-c8fe9a2e1f82-7">
        <path
           d="m 3.296875,2.390625 c 0,-0.03125 0,-0.046875 -0.171875,-0.21875 C 1.890625,0.921875 1.5625,-0.96875 1.5625,-2.5 c 0,-1.734375 0.375,-3.46875 1.609375,-4.703125 0.125,-0.125 0.125,-0.140625 0.125,-0.171875 0,-0.078125 -0.03125,-0.109375 -0.09375,-0.109375 -0.109375,0 -1,0.6875 -1.59375,1.953125 -0.5,1.09375 -0.625,2.203125 -0.625,3.03125 0,0.78125 0.109375,1.984375 0.65625,3.125 C 2.25,1.84375 3.09375,2.5 3.203125,2.5 c 0.0625,0 0.09375,-0.03125 0.09375,-0.109375 z m 0,0"
           id="id-cbc60e0c-f677-4b51-972d-c9c1f3af6945-6" />
      </g>
      <g
         id="id-5bbc38ac-72c3-49f4-ac99-e5f080e4b8b6-9">
        <path
           d="m 1.265625,-0.765625 1.0625,-1.03125 c 1.546875,-1.375 2.140625,-1.90625 2.140625,-2.90625 0,-1.140625 -0.890625,-1.9375 -2.109375,-1.9375 -1.125,0 -1.859375,0.921875 -1.859375,1.8125 0,0.546875 0.5,0.546875 0.53125,0.546875 0.171875,0 0.515625,-0.109375 0.515625,-0.53125 0,-0.25 -0.1875,-0.515625 -0.53125,-0.515625 -0.078125,0 -0.09375,0 -0.125,0.015625 0.21875,-0.65625 0.765625,-1.015625 1.34375,-1.015625 0.90625,0 1.328125,0.8125 1.328125,1.625 C 3.5625,-3.90625 3.078125,-3.125 2.515625,-2.5 l -1.90625,2.125 C 0.5,-0.265625 0.5,-0.234375 0.5,0 H 4.203125 L 4.46875,-1.734375 H 4.234375 C 4.171875,-1.4375 4.109375,-1 4,-0.84375 3.9375,-0.765625 3.28125,-0.765625 3.0625,-0.765625 Z m 0,0"
           id="id-f3480353-5750-44b1-9f85-95231d7329b2-9" />
      </g>
      <g
         id="id-619ee0ed-0dfa-4322-aa4d-91705d67f9fe-4">
        <path
           d="m 2.875,-2.5 c 0,-0.765625 -0.109375,-1.96875 -0.65625,-3.109375 -0.59375,-1.21875 -1.453125,-1.875 -1.546875,-1.875 -0.0625,0 -0.109375,0.046875 -0.109375,0.109375 0,0.03125 0,0.046875 0.1875,0.234375 0.984375,0.984375 1.546875,2.5625 1.546875,4.640625 0,1.71875 -0.359375,3.46875 -1.59375,4.71875 C 0.5625,2.34375 0.5625,2.359375 0.5625,2.390625 0.5625,2.453125 0.609375,2.5 0.671875,2.5 0.765625,2.5 1.671875,1.8125 2.25,0.546875 2.765625,-0.546875 2.875,-1.65625 2.875,-2.5 Z m 0,0"
           id="id-ffcc2410-5217-4731-aeca-dc4c9d61fd75-1" />
      </g>
    </g>
  </defs>
  <g
     inkscape:label="Capa 1"
     inkscape:groupmode="layer"
     id="layer1"
     transform="translate(-40.146267,-17.045958)">
    <rect
       style="fill:none;fill-rule:evenodd;stroke:#000000;stroke-width:0.5;stroke-dasharray:none"
       id="rect1"
       width="120.25272"
       height="76.671188"
       x="45.195648"
       y="22.194292" />
    <path
       style="fill:none;fill-rule:evenodd;stroke:#0000ff;stroke-width:0.499999;stroke-dasharray:2.99999, 0.499999;stroke-dashoffset:0;stroke-opacity:1"
       d="M 45.599183,60.328124 165.65013,60.277684"
       id="path1"
       sodipodi:nodetypes="cc" />
    <path
       style="fill:#000000;fill-rule:evenodd;stroke:#000000;stroke-width:0.3"
       d="M 45.271554,28.75548 H 165.3225"
       id="path2"
       sodipodi:nodetypes="cc" />
    <path
       style="fill:#000000;fill-rule:evenodd;stroke:#000000;stroke-width:0.3"
       d="M 45.271554,35.128325 H 165.3225"
       id="path2-8"
       sodipodi:nodetypes="cc" />
    <path
       style="fill:#000000;fill-rule:evenodd;stroke:#000000;stroke-width:0.3"
       d="M 45.271554,41.50117 H 165.3225"
       id="path2-1"
       sodipodi:nodetypes="cc" />
    <path
       style="fill:#000000;fill-rule:evenodd;stroke:#000000;stroke-width:0.3"
       d="M 45.271554,47.874015 H 165.3225"
       id="path2-6"
       sodipodi:nodetypes="cc" />
    <path
       style="fill:#000000;fill-rule:evenodd;stroke:#000000;stroke-width:0.3"
       d="M 45.271554,54.24686 H 165.3225"
       id="path2-7"
       sodipodi:nodetypes="cc" />
    <path
       style="fill:#000000;fill-rule:evenodd;stroke:#000000;stroke-width:0.3"
       d="M 45.271554,66.99255 H 165.3225"
       id="path2-2"
       sodipodi:nodetypes="cc" />
    <path
       style="fill:#000000;fill-rule:evenodd;stroke:#000000;stroke-width:0.3"
       d="M 45.271554,73.365395 H 165.3225"
       id="path2-5"
       sodipodi:nodetypes="cc" />
    <path
       style="fill:#000000;fill-rule:evenodd;stroke:#000000;stroke-width:0.3"
       d="M 45.271554,79.73824 H 165.3225"
       id="path2-79"
       sodipodi:nodetypes="cc" />
    <path
       style="fill:#000000;fill-rule:evenodd;stroke:#000000;stroke-width:0.3"
       d="M 45.91694,86.554354 H 165.96788"
       id="path2-26"
       sodipodi:nodetypes="cc" />
    <path
       style="fill:#000000;fill-rule:evenodd;stroke:#000000;stroke-width:0.3"
       d="M 45.271554,92.48393 H 165.3225"
       id="path2-9"
       sodipodi:nodetypes="cc" />
    <path
       style="fill:#000000;fill-rule:evenodd;stroke:#000000;stroke-width:0.3"
       d="m 155.11836,22.138348 0.40354,76.671195"
       id="path3" />
    <path
       style="fill:#000000;fill-rule:evenodd;stroke:#000000;stroke-width:0.3"
       d="m 75.328962,22.138348 0.403532,76.671195"
       id="path3-0" />
    <path
       style="fill:#000000;fill-rule:evenodd;stroke:#000000;stroke-width:0.3"
       d="m 95.276312,22.138348 0.403532,76.671195"
       id="path3-5" />
    <path
       style="fill:#000000;fill-rule:evenodd;stroke:#000000;stroke-width:0.3"
       d="m 55.381611,22.138348 0.403532,76.671195"
       id="path3-05" />
    <path
       style="fill:#000000;fill-rule:evenodd;stroke:#000000;stroke-width:0.3"
       d="m 65.355287,22.138348 0.403531,76.671195"
       id="path3-87" />
    <path
       style="fill:#000000;fill-rule:evenodd;stroke:#000000;stroke-width:0.3"
       d="m 85.302637,22.138348 0.403532,76.671195"
       id="path3-2" />
    <path
       style="fill:#000000;fill-rule:evenodd;stroke:#000000;stroke-width:0.3"
       d="m 105.24999,22.138348 0.40353,76.671195"
       id="path3-59" />
    <path
       style="fill:#000000;fill-rule:evenodd;stroke:#000000;stroke-width:0.3"
       d="m 125.19733,22.138348 0.40354,76.671195"
       id="path3-4" />
    <path
       style="fill:#000000;fill-rule:evenodd;stroke:#000000;stroke-width:0.3"
       d="m 114.71831,22.672381 0.40354,76.671196"
       id="path3-4-6" />
    <path
       style="fill:#000000;fill-rule:evenodd;stroke:#000000;stroke-width:0.3"
       d="m 135.17101,22.138348 0.40353,76.671195"
       id="path3-3" />
    <path
       style="fill:#000000;fill-rule:evenodd;stroke:#000000;stroke-width:0.3"
       d="m 145.14469,22.138348 0.40353,76.671195"
       id="path3-28" />
    <path
       style="fill:#000000;fill-rule:evenodd;stroke:#000000;stroke-width:0.3"
       d="m 165.09204,22.138348 0.40353,76.671195"
       id="path3-85" />
    <path
       style="fill:#000000;fill-rule:evenodd;stroke:#000000;stroke-width:0.3"
       d="M 45.271554,60.619705 H 165.3225"
       id="path2-70"
       sodipodi:nodetypes="cc" />
    <ellipse
       style="fill:#000000;fill-rule:evenodd;stroke:#000000;stroke-width:0.3"
       id="path4"
       cx="75.54805"
       cy="60.44569"
       rx="1.0700274"
       ry="0.92735708" />
    <ellipse
       style="fill:#000000;fill-rule:evenodd;stroke:#000000;stroke-width:0.3"
       id="path4-4"
       cx="95.493286"
       cy="60.481686"
       rx="1.0700274"
       ry="0.92735708" />
    <rect
       style="fill:none;fill-rule:evenodd;stroke:#f30000;stroke-width:0.490984;stroke-dasharray:none;stroke-opacity:1"
       id="rect4"
       width="108.80714"
       height="30.481136"
       x="51.319241"
       y="26.087299"
       ry="6.7735868" />
    <rect
       style="fill:none;fill-rule:evenodd;stroke:#f30000;stroke-width:0.490984;stroke-dasharray:none;stroke-opacity:1"
       id="rect4-8"
       width="108.80714"
       height="30.481136"
       x="51.74305"
       y="65.056374"
       ry="6.7735868" />
    <rect
       style="fill:none;fill-rule:evenodd;stroke:#f30000;stroke-width:0.5;stroke-dasharray:none;stroke-opacity:1"
       id="rect4-8-3"
       width="8.7680111"
       height="85.096642"
       x="40.396267"
       y="18.590456"
       ry="18.910366" />
    <text
       xml:space="preserve"
       style="font-size:7.05556px;line-height:0px;font-family:sans-serif;-inkscape-font-specification:sans-serif;fill:#000000;fill-opacity:1;fill-rule:evenodd;stroke:none;stroke-width:0.499999;stroke-dasharray:none;stroke-opacity:1"
       x="146.77678"
       y="92.582153"
       id="text5"><tspan
         sodipodi:role="line"
         id="tspan5"
         style="fill:#000000;fill-opacity:1;stroke:none;stroke-width:0.5"
         x="146.77678"
         y="92.582153">1</tspan></text>
    <text
       xml:space="preserve"
       style="font-size:7.05556px;line-height:0px;font-family:sans-serif;-inkscape-font-specification:sans-serif;fill:#000000;fill-opacity:1;fill-rule:evenodd;stroke:#f30000;stroke-width:0;stroke-dasharray:none;stroke-opacity:1"
       x="59.059177"
       y="63.618168"
       id="text5-9"><tspan
         sodipodi:role="line"
         id="tspan5-1"
         style="fill:#000000;fill-opacity:1;stroke-width:0;stroke-dasharray:none"
         x="59.059177"
         y="63.618168">5</tspan></text>
    <text
       xml:space="preserve"
       style="font-size:7.05556px;line-height:0px;font-family:sans-serif;-inkscape-font-specification:sans-serif;fill:#000000;fill-opacity:1;fill-rule:evenodd;stroke:#f30000;stroke-width:0;stroke-dasharray:none;stroke-opacity:1"
       x="119.1074"
       y="63.588078"
       id="text5-9-8"><tspan
         sodipodi:role="line"
         id="tspan5-1-8"
         style="fill:#000000;fill-opacity:1;stroke-width:0;stroke-dasharray:none"
         x="119.1074"
         y="63.588078">5</tspan></text>
    <text
       xml:space="preserve"
       style="font-size:7.05556px;line-height:0px;font-family:sans-serif;-inkscape-font-specification:sans-serif;fill:#000000;fill-opacity:1;fill-rule:evenodd;stroke:#f30000;stroke-width:0;stroke-dasharray:none;stroke-opacity:1"
       x="79.688782"
       y="62.919743"
       id="text5-9-7"><tspan
         sodipodi:role="line"
         id="tspan5-1-9"
         style="fill:#000000;fill-opacity:1;stroke-width:0;stroke-dasharray:none"
         x="79.688782"
         y="62.919743">8</tspan></text>
    <text
       xml:space="preserve"
       style="font-size:7.05556px;line-height:0px;font-family:sans-serif;-inkscape-font-specification:sans-serif;fill:#000000;fill-opacity:1;fill-rule:evenodd;stroke:#f30000;stroke-width:0;stroke-dasharray:none;stroke-opacity:1"
       x="147.66936"
       y="33.976974"
       id="text5-3"><tspan
         sodipodi:role="line"
         id="tspan5-2"
         style="fill:#000000;fill-opacity:1;stroke-width:0;stroke-dasharray:none"
         x="147.66936"
         y="33.976974">2</tspan></text>
    <text
       xml:space="preserve"
       style="font-size:7.05556px;line-height:0px;font-family:sans-serif;-inkscape-font-specification:sans-serif;fill:#000000;fill-opacity:1;fill-rule:evenodd;stroke:#f30000;stroke-width:0;stroke-dasharray:none;stroke-opacity:1"
       x="42.34087"
       y="34.250099"
       id="text5-3-2"><tspan
         sodipodi:role="line"
         id="tspan5-2-0"
         style="fill:#000000;fill-opacity:1;stroke-width:0;stroke-dasharray:none"
         x="42.34087"
         y="34.250099">3</tspan></text>
    <text
       xml:space="preserve"
       style="font-size:7.05556px;line-height:0px;font-family:sans-serif;-inkscape-font-specification:sans-serif;fill:#000000;fill-opacity:1;fill-rule:evenodd;stroke:#f30000;stroke-width:0;stroke-dasharray:none;stroke-opacity:1"
       x="58.018608"
       y="23.728188"
       id="text5-3-2-3"><tspan
         sodipodi:role="line"
         id="tspan5-2-0-7"
         style="fill:#000000;fill-opacity:1;stroke-width:0;stroke-dasharray:none"
         x="58.018608"
         y="23.728188">7</tspan></text>
    <text
       xml:space="preserve"
       style="font-size:7.05556px;line-height:0px;font-family:sans-serif;-inkscape-font-specification:sans-serif;fill:#000000;fill-opacity:1;fill-rule:evenodd;stroke:none;stroke-width:0.499999;stroke-dasharray:none;stroke-opacity:1"
       x="57.615074"
       y="102.21528"
       id="text5-3-2-06"><tspan
         sodipodi:role="line"
         id="tspan5-2-0-11"
         style="fill:#000000;fill-opacity:1;stroke:none;stroke-width:0.5"
         x="57.615074"
         y="102.21528">6</tspan></text>
    <rect
       style="fill:none;fill-rule:evenodd;stroke:#f30000;stroke-width:0.5;stroke-dasharray:none;stroke-opacity:1"
       id="rect4-8-3-7"
       width="8.7680111"
       height="85.096642"
       x="161.42041"
       y="18.736593"
       ry="18.910366" />
    <text
       xml:space="preserve"
       style="font-size:7.05556px;line-height:0px;font-family:sans-serif;-inkscape-font-specification:sans-serif;fill:#000000;fill-opacity:1;fill-rule:evenodd;stroke:#f30000;stroke-width:0;stroke-dasharray:none;stroke-opacity:1"
       x="165.52252"
       y="37.992085"
       id="text5-3-2-0"><tspan
         sodipodi:role="line"
         id="tspan5-2-0-1"
         style="fill:#000000;fill-opacity:1;stroke-width:0;stroke-dasharray:none"
         x="165.52252"
         y="37.992085">4</tspan></text>
    <ellipse
       style="fill:none;fill-rule:evenodd;stroke:#f30000;stroke-width:0.574713;stroke-dasharray:none;stroke-opacity:1"
       id="path5"
       cx="60.924339"
       cy="61.123371"
       rx="7.1674933"
       ry="3.2797279" />
    <rect
       style="fill:none;fill-rule:evenodd;stroke:#f30000;stroke-width:0.526398;stroke-dasharray:none;stroke-opacity:1"
       id="rect5"
       width="27.936983"
       height="6.9644465"
       x="71.660622"
       y="57.391472"
       ry="3.4822233" />
    <text
       xml:space="preserve"
       style="font-size:5.64444px;line-height:0px;font-family:sans-serif;-inkscape-font-specification:sans-serif;fill:#000000;fill-opacity:1;fill-rule:evenodd;stroke:#020000;stroke-width:0;stroke-dasharray:none;stroke-opacity:1"
       x="71.624611"
       y="71.573975"
       id="text6"><tspan
         sodipodi:role="line"
         id="tspan6"
         style="font-size:5.64444px;fill:#000000;fill-opacity:1;stroke:#020000;stroke-width:0;stroke-dasharray:none;stroke-opacity:1"
         x="71.624611"
         y="71.573975">j01</tspan></text>
    <text
       xml:space="preserve"
       style="font-size:5.64444px;line-height:0px;font-family:sans-serif;-inkscape-font-specification:sans-serif;fill:#000000;fill-opacity:1;fill-rule:evenodd;stroke:#020000;stroke-width:0;stroke-dasharray:none;stroke-opacity:1"
       x="91.615814"
       y="71.079399"
       id="text6-8"><tspan
         sodipodi:role="line"
         id="tspan6-7"
         style="font-size:5.64444px;fill:#000000;fill-opacity:1;stroke:#020000;stroke-width:0;stroke-dasharray:none;stroke-opacity:1"
         x="91.615814"
         y="71.079399">j02</tspan></text>
    <rect
       style="fill:none;fill-opacity:1;fill-rule:evenodd;stroke:#ff0000;stroke-width:0.5;stroke-dasharray:none;stroke-opacity:1"
       id="rect6"
       width="54.476898"
       height="6.052989"
       x="102.48393"
       y="57.850983"
       ry="3.0264945" />
    <rect
       style="fill:none;fill-opacity:1;fill-rule:evenodd;stroke:#ff0000;stroke-width:0.499999;stroke-dasharray:none;stroke-opacity:1"
       id="rect7"
       width="107.54144"
       height="7.868886"
       x="51.437057"
       y="17.295958"
       ry="3.0264945" />
    <rect
       style="fill:none;fill-opacity:1;fill-rule:evenodd;stroke:#ff0000;stroke-width:0.499999;stroke-dasharray:none;stroke-opacity:1"
       id="rect8"
       width="107.94497"
       height="6.052989"
       x="52.244122"
       y="96.791878"
       ry="3.0264945" />
  </g>
</svg>
